<svg version="1.1" xmlns="http://www.w3.org/2000/svg" style="display: block;" viewBox="29 58 1027 1028">
<path transform="translate(0,0)" fill="rgb(26,31,35)" d="M 254.527 58.4289 C 290.185 56.7595 335.729 57.9474 371.811 57.9564 L 585.302 57.946 L 743.003 57.9403 C 791.435 57.9442 841.72 55.8104 889.17 65.3835 C 925.156 72.4601 958.533 89.21 985.713 113.833 C 1042.91 164.896 1050.99 226.675 1054.32 298.927 C 1056.3 341.925 1055.81 385.221 1055.82 428.255 L 1055.87 621.783 L 1055.88 776.865 C 1055.84 815.397 1055.48 886.85 1048 924.094 C 1041.21 958.449 1025.24 990.323 1001.79 1016.33 C 954.539 1068.68 900.684 1080.69 833.249 1084.04 C 784.547 1086.17 735.655 1085.67 686.908 1085.69 L 482.47 1085.71 L 330.089 1085.58 C 288.847 1085.33 229.242 1085.06 190.05 1077.08 C 157.353 1070.39 127.033 1055.09 102.219 1032.77 C 50.5242 986.293 36.4925 939.116 32.3988 871.084 C 29.2468 818.704 29.9944 767.438 29.983 715.001 L 29.9587 521.997 L 29.9719 380.493 C 29.9809 333.698 29.8174 265.597 39.4314 219.773 C 46.4955 186.088 62.3761 154.881 85.4505 129.343 C 132.515 76.9853 186.568 62.0207 254.527 58.4289 z"/>
<path transform="translate(0,0)" fill="rgb(254,254,254)" d="M 296.926 792.072 C 296.771 776.15 296.712 760.226 296.747 744.303 L 296.831 587.49 L 296.805 513.923 C 296.807 495.957 296.244 476.887 298.387 459.2 C 310.26 361.177 380.866 277.072 476.573 251.162 C 500.704 244.629 519.632 242.732 544.791 242.789 C 610.326 242.447 673.191 268.729 718.981 315.614 C 749.552 346.46 771.604 387.743 782.094 429.918 C 788.939 457.438 788.171 486.381 788.197 514.537 L 788.217 581.951 L 788.057 773.036 L 767.895 773.014 C 768.173 735.672 767.967 698.327 767.278 660.99 C 767.214 654.386 770.125 644.43 767.746 639.092 C 761.686 625.5 758.622 615.074 756.867 600.369 C 755.099 615.496 752.151 627.565 745.755 641.741 C 745.066 643.267 745.366 642.95 745.771 645.036 L 747.459 649.468 C 751.629 650.58 751.228 649.154 754.931 649.933 L 757.564 649.383 C 761.807 653.473 761.078 671.842 758.1 676.767 C 756.567 676.604 756.427 676.7 755.004 676.2 C 751.964 675.484 748.578 674.598 746.705 672.138 C 737.712 666.501 730.589 659.111 723.32 651.475 C 722.514 645.83 722.565 640.915 719.643 636.312 L 718.346 636.329 C 716.401 639.698 716.997 644.677 717.093 648.72 C 695.27 646.395 673.495 643.653 651.777 640.496 C 651.958 613.438 651.634 586.378 650.805 559.332 C 650.519 551.365 646.965 486.145 648.916 482.821 C 651.6 481.72 652.212 481.631 654.301 479.717 C 654.283 472.438 649.454 478.638 646.19 469.014 C 644.515 464.077 646.014 451.353 644.025 448.895 L 643.322 448.026 L 644.395 448.275 L 643.814 447.415 C 640.621 450.902 639.672 467.47 639.184 473.041 C 636.311 471.752 628.162 468.181 626.31 466.39 C 618.409 458.753 633.399 438.065 623.82 429.293 C 621.35 430.989 619.69 441.565 618.643 445.805 C 616.847 433.274 617.729 403.871 617.905 390.114 L 630.564 383.601 C 618.564 376.956 611.59 375.695 601.413 365.995 C 603.536 357.67 610.379 352.057 604.396 345.924 L 602.978 347.319 C 599.765 344.896 598.86 343.744 596.253 340.732 C 594.25 343.694 592.799 346.584 589.738 348.185 L 588.403 347.721 C 586.378 349.841 586.964 348.81 586.201 351.669 C 587.471 355.107 588.172 355.367 590.007 358.149 C 597.684 369.787 571.363 380.125 564.817 383.271 C 568.645 385.76 573.021 388.786 577.062 390.772 C 577.242 407.447 578.118 432.275 576.158 447.997 C 574.511 441.321 572.812 428.925 570.654 423.907 C 568.239 440.702 565.711 450.106 574.277 465.121 C 566.662 469.198 563.392 470.321 554.759 472.575 C 553.032 472.683 550.184 472.731 548.628 473.246 C 544.606 476.163 540.501 474.954 537.293 478.246 L 537.535 479.91 C 539.65 480.903 541.421 481.759 543.459 482.901 C 546.737 492.557 540.108 620.776 539.078 637.962 C 519.772 639.375 486.489 641.861 467.359 645.148 L 462.009 625.407 C 457.546 627.228 455.315 628.414 450.533 628.601 C 449.093 634.817 447.495 641.085 446.683 647.404 C 433.937 648.042 421.204 648.919 408.491 650.035 C 401.427 650.69 371.531 654.085 366.325 653.25 C 362.742 649.893 365.422 647.844 361.624 644.365 L 360.311 645.361 C 359.184 654.732 359.85 668.968 347.221 669.222 C 338.857 662.362 349.161 642.139 340.624 638.96 L 332.359 639.14 C 327.267 644.255 332.32 661.509 329.84 668.115 C 325.954 678.463 312.832 682.17 314.7 694.545 C 317.266 693.747 320.111 693.058 322.729 692.364 C 328.332 691.945 331.241 691.885 336.843 692.231 L 336.775 792.042 L 322.991 792.005 C 319.933 792.465 317.258 791.997 314.208 791.637 C 310.855 792.271 300.822 792.06 296.926 792.072 z"/>
<path transform="translate(0,0)" fill="rgb(254,254,254)" d="M 322.729 692.364 C 328.332 691.945 331.241 691.885 336.843 692.231 L 336.775 792.042 L 322.991 792.005 C 319.933 792.465 317.258 791.997 314.208 791.637 C 313.306 760.284 314.788 726.222 314.7 694.545 C 317.266 693.747 320.111 693.058 322.729 692.364 z"/>
<path transform="translate(0,0)" fill="rgb(51,51,52)" d="M 314.7 694.545 C 317.266 693.747 320.111 693.058 322.729 692.364 C 322.322 725.279 322.97 758.974 322.991 792.005 C 319.933 792.465 317.258 791.997 314.208 791.637 C 313.306 760.284 314.788 726.222 314.7 694.545 z"/>
<path transform="translate(0,0)" fill="rgb(51,51,52)" d="M 745.771 645.036 L 747.459 649.468 C 751.629 650.58 751.228 649.154 754.931 649.933 L 757.564 649.383 C 761.807 653.473 761.078 671.842 758.1 676.767 C 756.567 676.604 756.427 676.7 755.004 676.2 C 751.964 675.484 748.578 674.598 746.705 672.138 C 747.089 667.584 746.012 650.575 745.771 645.036 z"/>
<path transform="translate(0,0)" fill="rgb(214,213,215)" d="M 754.931 649.933 L 757.564 649.383 C 761.807 653.473 761.078 671.842 758.1 676.767 C 756.567 676.604 756.427 676.7 755.004 676.2 C 753.918 669.752 753.221 656.198 754.931 649.933 z"/>
<path transform="translate(0,0)" fill="rgb(51,51,52)" d="M 450.533 628.601 C 451.749 621.86 453.247 589.908 456.899 587.26 C 458.384 590.777 461.069 619.082 462.009 625.407 C 457.546 627.228 455.315 628.414 450.533 628.601 z"/>
<path transform="translate(0,0)" fill="rgb(3,3,2)" d="M 588.403 347.721 C 589.378 346.509 590.316 345.267 591.214 343.997 C 601.512 329.435 588.511 325.063 587.493 318.953 L 588.626 318.011 C 594.49 318.657 602.496 316.82 605.755 317.775 L 605.818 319.983 C 604.097 322.949 600.55 325.061 597.666 327.116 C 597.866 331.16 597.762 335.795 597.768 339.889 C 600.7 342.097 601.869 343.318 604.396 345.924 L 602.978 347.319 C 599.765 344.896 598.86 343.744 596.253 340.732 C 594.25 343.694 592.799 346.584 589.738 348.185 L 588.403 347.721 z"/>
<path transform="translate(0,0)" fill="rgb(51,51,52)" d="M 336.046 609.871 C 337.206 617.555 341.199 629.499 341.625 634.015 C 337.009 635.151 334.56 636.831 332.326 632.231 C 333.401 624.604 334.983 617.247 336.046 609.871 z"/>
<path transform="translate(0,0)" fill="rgb(51,51,52)" d="M 548.628 473.246 C 548.61 472.455 548.607 471.665 548.619 470.874 C 548.684 465.921 549.077 450.524 552.386 447.296 C 555.18 451.846 552.079 467.013 554.759 472.575 C 553.032 472.683 550.184 472.731 548.628 473.246 z"/>
<path transform="translate(0,0)" fill="rgb(214,213,215)" d="M 332.359 639.14 C 332.542 636.269 330.942 635.829 332.326 632.231 C 334.56 636.831 337.009 635.151 341.625 634.015 L 340.624 638.96 L 332.359 639.14 z"/>
<path transform="translate(0,0)" fill="rgb(3,3,2)" d="M 602.439 301.706 C 611.221 303.822 616.749 300.654 621.483 302.538 L 621.815 304.16 L 618.215 308.308 C 616.976 310.83 616.929 311.389 614.665 312.824 C 609.775 311.45 604.853 306.095 602.439 301.706 z"/>
<path transform="translate(0,0)" fill="rgb(3,3,2)" d="M 570.308 301.208 C 577.336 303.564 584.458 301.462 587.806 303.045 C 589.198 306.505 588.166 307.38 587.143 311.809 L 586.047 312.371 C 579.508 310.032 572.487 308.17 570.308 301.208 z"/>
<path transform="translate(0,0)" fill="rgb(254,254,254)" d="M 529.583 168.431 C 533.832 168.072 538.502 168.103 542.779 168.091 C 628.788 167.357 711.419 201.527 771.789 262.793 C 786.927 277.924 797.573 292.214 809.543 309.808 C 840.472 356.145 858.89 409.695 863.007 465.254 C 864.657 486.708 864.105 510.72 864.089 532.434 L 864.014 625.972 L 864.052 858.633 C 855.666 858.637 847.126 858.437 838.727 858.324 L 838.504 608.043 L 838.45 529.519 C 838.417 488.296 839.321 455.984 829.53 415.177 C 818.027 368.825 795.275 326.023 763.289 290.558 C 707.544 229.581 639.471 198.089 557.249 194.432 C 551.803 194.191 546.352 194.089 540.901 194.126 C 460.414 194.801 389.605 221.825 332.555 279.897 C 294.868 317.712 268.328 365.181 255.848 417.091 C 245.524 458.348 246.902 491.016 246.94 533.013 L 246.96 615.659 L 247.079 858.183 C 238.826 858.492 230.242 858.509 221.958 858.639 L 222.015 594.429 L 222.068 516.916 C 222.125 490.085 222.376 452.325 227.557 426.615 C 238.359 373.009 264.552 315.779 301.947 275.451 C 366.281 206.071 436.273 173.651 529.583 168.431 z"/>
<path transform="translate(0,0)" fill="rgb(254,254,254)" d="M 410.793 817.167 L 439.338 816.985 C 431.308 829.352 412.207 855.155 401.895 865.535 C 451.465 867.283 508.674 865.687 558.901 865.737 L 632.818 865.851 C 648.964 865.875 666.653 866.289 682.604 865.065 C 672.706 853.925 654.181 829.306 645.925 817.282 C 655.733 817.57 665.544 817.769 675.356 817.879 C 690.096 832.316 702.323 846.428 716.265 861.555 L 765.981 915.025 C 785.146 936.047 802.028 955.419 822.129 975.862 C 808.748 975.915 778.646 976.717 766.083 975.144 C 760.761 967.382 750.899 955.718 744.797 948.072 L 489.574 948.125 C 441.03 948.156 389.431 947.177 341.11 948.223 C 335.495 954.584 324.993 968.056 320.624 975.127 C 302.612 976.461 281.38 975.717 262.849 975.976 C 273.101 966.426 286.893 950.825 296.861 940.167 L 373.01 857.236 C 384.34 844.914 398.364 827.788 410.793 817.167 z"/>
<path transform="translate(0,0)" fill="rgb(26,31,35)" d="M 387.877 886.192 C 403.95 885.387 425.655 886.135 442.096 886.138 L 549.384 886.103 L 640.168 886.082 C 658.968 886.082 681.542 885.571 699.979 887.057 C 704.181 895.916 718.887 913.025 725.568 921.258 C 717.008 920.823 706.586 921.031 697.885 920.974 L 467.62 921.099 L 401.493 920.93 C 390.135 920.898 371.356 920.335 360.662 921.907 C 368.776 911.993 380.088 896.671 387.877 886.192 z"/>
<path transform="translate(0,0)" fill="rgb(254,254,254)" d="M 551.108 481.435 C 567.261 478.664 585.372 476.969 601.127 473.44 C 600.721 524.631 600.905 575.826 601.679 627.014 L 602.015 772.989 C 586.383 773.022 570.508 773.156 554.891 773.184 C 535.324 773.22 546.386 769.54 540.827 763.501 C 532.621 761.63 534.806 769.967 529.525 773.14 C 521.393 772.438 524.911 766.583 519.13 763.239 C 509.621 766.473 514.95 785.537 510.304 792.269 L 508.137 792.537 C 501.476 787.36 509.253 774.317 503.518 765.83 C 500.234 763.859 501.728 764.323 497.774 764.206 C 491.01 771.454 500.22 791.651 490.128 792.665 C 483.818 787.152 490.617 773.863 485.435 765.948 C 482.165 764.228 483.265 764.687 479.169 765.124 C 474.427 768.828 478.065 781.885 476.087 790.954 C 474.187 792.811 474.947 792.243 471.665 792.532 C 465.046 788.612 471.958 772.163 466.86 764.946 C 464.191 764.05 461.886 765.339 459.058 766.344 C 455.756 766.116 452.457 765.856 449.16 765.564 C 445.039 765.07 446.039 764.634 442.538 766.123 C 435.99 766.672 434.877 766.919 428.555 765.007 L 424.292 766.887 L 415.649 767.224 L 409.712 766.659 C 404.761 766.532 404.525 767.591 397.394 766.754 C 395.904 766.864 392.514 767.014 391.212 767.254 L 381.017 767.919 C 378.271 767.977 375.142 767.828 372.596 768.66 C 371.928 775.194 373.281 788.727 369.938 791.917 C 367.771 792.078 367.878 792.131 366.007 791.066 C 364.016 789.464 364.643 790.207 363.925 787.309 L 362.188 787.411 L 360.537 784.67 C 359.725 787.453 359.71 789.586 357.271 791.342 L 358.394 790.942 L 358.449 791.804 L 355.11 791.738 C 351.934 792.134 350.086 792.599 346.989 791.589 C 344.652 788.051 345.761 704.464 345.863 691.931 C 365.16 689.427 390.741 688.409 410.534 687.046 L 546.052 677.967 C 547.698 664.889 547.265 639.727 547.746 624.949 L 551.108 481.435 z"/>
<path transform="translate(0,0)" fill="rgb(51,51,52)" d="M 355.11 791.738 C 355.279 784.025 353.381 774.415 357.398 768.393 C 361.037 767.072 360.822 767.774 365.288 768.825 L 372.596 768.66 C 371.928 775.194 373.281 788.727 369.938 791.917 C 367.771 792.078 367.878 792.131 366.007 791.066 C 364.016 789.464 364.643 790.207 363.925 787.309 L 362.188 787.411 L 360.537 784.67 C 359.725 787.453 359.71 789.586 357.271 791.342 L 358.394 790.942 L 358.449 791.804 L 355.11 791.738 z"/>
<path transform="translate(0,0)" fill="rgb(214,213,215)" d="M 365.288 768.825 L 372.596 768.66 C 371.928 775.194 373.281 788.727 369.938 791.917 C 367.771 792.078 367.878 792.131 366.007 791.066 C 365.892 783.649 365.652 776.234 365.288 768.825 z"/>
<path transform="translate(0,0)" fill="rgb(3,3,2)" d="M 572.583 706.782 C 569.355 704.884 566.704 703.891 567.793 699.412 C 571.09 685.857 573.632 673.068 575.339 659.162 L 576.806 658.39 C 579.556 664.017 585.569 695.758 584.943 703.483 L 583.238 705.8 C 579.674 706.872 576.272 707.094 572.583 706.782 z"/>
<path transform="translate(0,0)" fill="rgb(26,31,35)" d="M 572.583 706.782 C 576.272 707.094 579.674 706.872 583.238 705.8 C 580.769 710.446 582.314 737.006 582.096 744.489 C 579.731 746.555 577.493 745.911 573.65 746.108 C 569.606 742.701 574.97 715.532 572.583 706.782 z"/>
<path transform="translate(0,0)" fill="rgb(3,3,2)" d="M 512.697 717.673 C 515.226 717.816 515.807 717.888 518.229 718.617 C 522.283 723.877 520.378 740.017 520.095 746.987 C 517.458 747.009 516.034 747.267 513.689 746.072 C 510.161 740.662 512.577 725.568 512.697 717.673 z"/>
<path transform="translate(0,0)" fill="rgb(3,3,2)" d="M 443.376 720.508 C 444.61 720.76 446.042 721.211 447.275 721.557 C 450.446 726.85 449.218 745.031 448.105 751.125 C 446.263 750.716 443.398 750.247 442.766 748.415 C 440.534 741.946 441.032 726.442 443.376 720.508 z"/>
<path transform="translate(0,0)" fill="rgb(3,3,2)" d="M 488.782 719.288 C 491.178 719.371 491.404 719.439 493.707 720.159 C 496.905 725.363 495.297 740.897 494.993 747.701 C 492.281 747.621 491.642 747.816 489.424 746.462 C 486.339 740.865 488.255 726.282 488.782 719.288 z"/>
<path transform="translate(0,0)" fill="rgb(3,3,2)" d="M 396.331 724.286 C 397.895 724.587 400.605 724.788 401.288 725.803 C 404.264 730.228 403.058 746.192 403.014 751.524 C 400.574 751.395 398.956 751.63 397.157 750.105 C 393.796 743.444 395.675 732.024 396.331 724.286 z"/>
<path transform="translate(0,0)" fill="rgb(3,3,2)" d="M 536.225 716.257 L 540.064 716.782 C 542.972 721.22 541.337 738.497 541.825 746.081 C 539.637 746.1 538.889 745.913 536.723 745.498 C 533.583 741.413 535.887 722.358 536.225 716.257 z"/>
<path transform="translate(0,0)" fill="rgb(3,3,2)" d="M 466.626 719.283 L 470.367 720.363 C 473.489 724.909 471.9 743.304 471.614 749.756 C 470.029 749.558 469.148 749.277 467.623 748.879 C 463.953 743.623 466.094 726.299 466.626 719.283 z"/>
<path transform="translate(0,0)" fill="rgb(3,3,2)" d="M 419.839 722.199 C 421.279 722.537 422.277 722.954 423.655 723.459 C 426.528 728.678 425.195 744.435 424.922 751.126 C 422.684 750.719 422.26 750.571 420.144 749.713 C 416.582 744.078 418.816 728.876 419.839 722.199 z"/>
<path transform="translate(0,0)" fill="rgb(3,3,2)" d="M 358.514 726.184 L 361.348 727.153 C 364.247 730.829 364.296 748.784 361.785 753.04 C 353.138 749.641 357.193 734.16 358.514 726.184 z"/>
<path transform="translate(0,0)" fill="rgb(3,3,2)" d="M 377.859 724.581 C 378.894 725.007 380.485 725.431 380.895 726.272 C 383.379 731.376 381.872 747.435 381.426 752.779 C 380.598 752.514 378.148 751.635 377.835 750.964 C 375.308 745.551 376.124 729.938 377.859 724.581 z"/>
<path transform="translate(0,0)" fill="rgb(26,31,35)" d="M 579.031 490.251 C 580.951 490.741 580.985 491.01 582.368 492.388 C 583.708 498.353 583.339 503.4 581.87 509.327 C 580.399 508.876 579.833 508.188 578.694 507.169 C 576.939 501.119 577.773 496.379 579.031 490.251 z"/>
<path transform="translate(0,0)" fill="rgb(26,31,35)" d="M 566.872 491.536 L 568.688 493.185 C 570.097 498.974 570.365 504.701 568.822 510.501 C 568.183 510.176 567.062 509.265 566.437 508.794 C 565.201 503.112 565.624 497.186 566.872 491.536 z"/>
<path transform="translate(0,0)" fill="rgb(51,51,52)" d="M 416.745 697.265 C 417.979 697.934 418.416 698.411 419.481 699.304 C 420.547 703.111 419.954 704.619 419.061 708.467 L 416.634 706.884 C 415.123 703.988 416.17 700.571 416.745 697.265 z"/>
<path transform="translate(0,0)" fill="rgb(51,51,52)" d="M 496.141 692.192 L 498.981 693.22 C 500.719 696.692 499.945 697.813 499.737 702.273 L 497.004 701.391 C 495.202 698.748 495.921 695.614 496.141 692.192 z"/>
<path transform="translate(0,0)" fill="rgb(214,213,215)" d="M 651.844 677.287 C 665.199 676.606 748.02 682.096 758.343 687.213 C 759.815 689.818 759.361 688.978 759.012 692.544 C 747.745 692.229 658.282 685.739 652.557 683.354 C 650.949 680.111 651.319 681.52 651.844 677.287 z"/>
<path transform="translate(0,0)" fill="rgb(214,213,215)" d="M 625.778 667.191 C 630.291 668.597 631.437 672.45 632.287 676.651 C 634.182 686.017 635.911 740.744 632.828 745.311 C 629.396 745.261 626.78 745.591 623.847 743.955 C 621.886 734.161 623.407 677.669 625.778 667.191 z"/>
<path transform="translate(0,0)" fill="rgb(254,254,254)" d="M 593.256 395.559 C 596.757 395.603 597.915 395.505 601.354 396.644 C 604.554 401.191 602.92 430.856 602.393 437.841 C 595.359 438.415 592.58 436.897 591.964 429.172 C 591.128 418.693 591.746 405.964 593.256 395.559 z"/>
<path transform="translate(0,0)" fill="rgb(214,213,215)" d="M 677.258 709.447 C 679.723 709.75 680.476 709.967 682.838 710.752 C 686.504 715.903 684.41 757.893 683.058 766.067 C 679.279 765.679 679.73 766.318 677.36 764.18 C 675.392 752.681 676.273 721.512 677.258 709.447 z"/>
<path transform="translate(0,0)" fill="rgb(184,184,186)" d="M 717.349 712.524 C 720.173 712.726 720.589 712.744 723.093 714.038 C 725.628 719.145 724.209 758.923 723.593 766.443 C 720.389 766.372 716.347 766.625 716.184 762.618 C 715.55 747.082 714.936 727.762 717.349 712.524 z"/>
<path transform="translate(0,0)" fill="rgb(184,184,186)" d="M 695.335 712.288 C 698.988 712.685 700.167 712.168 702.622 714.179 C 703.581 723.184 703.116 756.997 702.464 766.396 C 698.624 765.749 699.625 766.403 697.055 764.349 C 693.221 754.597 694.864 724.156 695.335 712.288 z"/>
<path transform="translate(0,0)" fill="rgb(214,213,215)" d="M 657.712 708.24 C 660.011 708.633 660.114 708.65 662.106 709.822 C 665.481 717.392 664.506 759.144 662.55 767.834 C 660.424 767.18 660.227 766.972 658.371 765.69 C 654.76 758.115 656.286 717.255 657.712 708.24 z"/>
<path transform="translate(0,0)" fill="rgb(214,213,215)" d="M 738.064 712.768 C 739.442 713.763 740.63 714.204 740.969 715.747 C 742.758 723.882 743.434 761.862 740.693 767.369 C 738.593 766.461 738.679 766.504 737.02 764.919 C 734.51 757.618 734.863 719.98 738.064 712.768 z"/>
<path transform="translate(0,0)" fill="rgb(214,213,215)" d="M 428.555 765.007 C 434.877 766.919 435.99 766.672 442.538 766.123 C 440.536 773.351 441.445 788.643 438.491 792.153 C 435.346 792.351 436.523 792.675 433.993 791.066 C 430.255 781.961 437.533 771.518 428.555 765.007 z"/>
<path transform="translate(0,0)" fill="rgb(214,213,215)" d="M 449.16 765.564 C 452.457 765.856 455.756 766.116 459.058 766.344 C 457.428 773.132 458.832 788.588 455.82 792.413 L 453.263 792.487 C 449.474 788.858 450.563 773.467 449.321 766.44 L 449.16 765.564 z"/>
<path transform="translate(0,0)" fill="rgb(214,213,215)" d="M 381.017 767.919 L 391.212 767.254 C 388.692 776.572 392.107 780.424 385.916 792.491 L 384.382 792.522 C 381.198 787.851 381.167 773.539 381.017 767.919 z"/>
<path transform="translate(0,0)" fill="rgb(214,213,215)" d="M 415.649 767.224 L 424.292 766.887 C 424.044 773.968 424.454 786.16 420.079 791.708 L 418.453 791.822 C 414.583 786.137 415.562 774.181 415.649 767.224 z"/>
<path transform="translate(0,0)" fill="rgb(214,213,215)" d="M 397.394 766.754 C 404.525 767.591 404.761 766.532 409.712 766.659 C 401.317 771.809 408.121 781.606 401.736 792.327 L 400.406 792.449 C 397.544 787.974 397.91 773.371 397.394 766.754 z"/>
</svg>
